<?xml version="1.0" encoding="UTF-8"?> <svg xmlns="http://www.w3.org/2000/svg" width="200" height="44" viewBox="0 0 200 44" fill="none"><g clip-path="url(#clip0)"><path d="M52.7429 14.32H56.0577V16.563H56.4868C57.316 15.2414 58.6665 13.8886 61.4907 13.8886C65.3904 13.8886 68.5206 17.2092 68.5206 21.8786C68.5206 26.55 65.3904 29.8999 61.4907 29.8999C58.6665 29.8999 57.316 28.549 56.4868 27.1962H56.1193V35.6176H52.7429V14.32ZM65.1442 21.8786C65.1442 18.683 63.2107 16.9007 60.6019 16.9007C57.9297 16.9007 56.1193 18.7767 56.1193 21.8786C56.1193 24.9825 57.9297 26.8897 60.6019 26.8897C63.2107 26.8897 65.1442 25.0762 65.1442 21.8786Z" fill="#231F20"></path><path d="M74.7216 16.6548H75.1525C75.7047 14.9955 76.9629 14.2576 79.0195 14.2576H80.6163V17.424H78.1614C76.1029 17.424 74.8139 18.5601 74.8139 20.7738V29.4704H71.4375V14.3201H74.7216V16.6548Z" fill="#231F20"></path><path d="M84.6365 7.34314C86.0486 7.34314 87.1548 8.35824 87.1548 9.80085C87.1548 11.2161 86.0486 12.2605 84.6365 12.2605C83.2244 12.2605 82.0894 11.2161 82.0894 9.80085C82.0894 8.35824 83.2244 7.34314 84.6365 7.34314ZM86.3257 29.4704H82.9493V14.32H86.3257V29.4704Z" fill="#231F20"></path><path d="M93.5079 14.3187V16.4387H93.9389C94.6449 15.0566 95.9647 14.0728 98.0213 14.0728C100.078 14.0728 101.428 15.1484 102.134 16.6222H102.565C103.21 15.2713 104.468 14.0728 106.892 14.0728C109.624 14.0728 111.958 16.0698 111.958 19.2049V29.4691H108.581V19.4508C108.581 17.8833 107.414 16.9912 105.788 16.9912C104.068 16.9912 102.779 18.0375 102.779 20.1262V29.4691H99.4026V19.4508C99.4026 17.8833 98.2983 16.9912 96.6707 16.9912C94.92 16.9912 93.5695 18.0375 93.5695 20.1262V29.4691H90.1931V14.3187H93.5079Z" fill="#231F20"></path><path d="M122.518 13.8886C126.631 13.8886 129.27 16.2565 129.27 19.8504V29.4704H125.955V27.1962H125.526C124.974 28.3948 123.653 29.8998 120.492 29.8998C117.085 29.8998 114.843 28.057 114.843 25.2304C114.843 22.6477 116.838 21.0802 120.245 20.7425L125.925 20.1588V19.7586C125.925 18.0076 124.667 16.8402 122.394 16.8402C120.155 16.8402 118.803 17.9451 117.975 19.6356L115.151 18.0388C116.594 15.7334 118.833 13.8886 122.518 13.8886ZM121.198 27.1044C124.328 27.1044 125.925 25.2304 125.925 22.8937V22.6477L120.982 23.1709C119.386 23.3232 118.343 23.8463 118.343 25.0762C118.343 26.306 119.357 27.1044 121.198 27.1044Z" fill="#231F20"></path><path d="M136.331 29.4712H132.955V7.95886H136.331V29.4712Z" fill="#231F20"></path><path d="M147.107 13.8886C151.557 13.8886 154.966 17.1467 154.966 21.8786C154.966 26.6125 151.557 29.8998 147.107 29.8998C142.655 29.8998 139.248 26.6125 139.248 21.8786C139.248 17.1467 142.655 13.8886 147.107 13.8886ZM147.107 26.8584C149.777 26.8584 151.588 24.9219 151.588 21.8786C151.588 18.8372 149.777 16.932 147.107 16.932C144.437 16.932 142.624 18.8372 142.624 21.8786C142.624 24.9219 144.437 26.8584 147.107 26.8584Z" fill="#231F20"></path><path d="M172.708 14.32V28.9785C172.708 33.0974 169.76 36.0471 165.095 36.0471C160.982 36.0471 158.648 34.1106 157.144 31.8071L160.06 30.0541C160.889 31.6528 162.425 33.0974 164.88 33.0974C167.459 33.0974 169.331 31.7446 169.331 28.8262V26.7667H168.962C168.164 28.1176 166.784 29.4704 163.96 29.4704C160.091 29.4704 156.93 26.2435 156.93 21.6639C156.93 17.1155 160.091 13.8886 163.96 13.8886C166.784 13.8886 168.164 15.2414 168.962 16.563H169.393V14.32H172.708ZM169.331 21.6639C169.331 18.683 167.519 16.9007 164.849 16.9007C162.24 16.9007 160.307 18.5913 160.307 21.6639C160.307 24.7677 162.24 26.4583 164.849 26.4583C167.519 26.4583 169.331 24.676 169.331 21.6639Z" fill="#231F20"></path><path d="M178.263 7.34314C179.676 7.34314 180.782 8.35824 180.782 9.80085C180.782 11.2161 179.676 12.2605 178.263 12.2605C176.851 12.2605 175.716 11.2161 175.716 9.80085C175.716 8.35824 176.851 7.34314 178.263 7.34314ZM179.953 29.4704H176.576V14.32H179.953V29.4704Z" fill="#231F20"></path><path d="M192.354 20.0971L199.045 29.4712H195.086L189.928 22.1254L187.196 24.3996V29.4712H183.819V7.95886H187.196V20.0971H187.565L194.41 14.3208H199.23L192.354 20.0971Z" fill="#231F20"></path><ellipse cx="21.7741" cy="22.0506" rx="19.797" ry="20.0877" fill="white"></ellipse><path fill-rule="evenodd" clip-rule="evenodd" d="M36.7726 6.83189C45.0561 15.237 45.0561 28.8643 36.7726 37.2694C28.4892 45.6745 15.059 45.6745 6.77558 37.2694C-1.50788 28.8643 -1.50788 15.237 6.77558 6.83189C15.059 -1.5732 28.4892 -1.5732 36.7726 6.83189ZM6.12346 22.0506L21.7741 6.17021L26.6649 11.1328L15.9051 22.0506L26.6649 32.9684L21.7741 37.9311L6.12346 22.0506ZM31.8818 27.675L37.4247 22.0506L31.8818 16.4263L26.3389 22.0506L31.8818 27.675Z" fill="#F15A24"></path></g><defs><clipPath id="clip0"><rect width="200" height="44" fill="white"></rect></clipPath></defs></svg> 